HIERARCHY
ROOT Hips
{
 OFFSET 0.000000 0.000000 0.000000
 CHANNELS 6 Xposition Yposition Zposition Yrotation Xrotation Zrotation
 JOINT Chest
 {
  OFFSET 0.000000 9.581000 -0.001100
  CHANNELS 3 Yrotation Xrotation Zrotation
  JOINT Chest2
  {
   OFFSET 0.000000 9.561100 0.002200
   CHANNELS 3 Yrotation Xrotation Zrotation
   JOINT Chest3
   {
    OFFSET 0.000000 9.521100 0.000000
    CHANNELS 3 Yrotation Xrotation Zrotation
    JOINT Chest4
    {
     OFFSET 0.000000 9.511400 0.000000
     CHANNELS 3 Yrotation Xrotation Zrotation
     JOINT Neck
     {
      OFFSET 0.000000 14.375100 0.000000
      CHANNELS 3 Yrotation Xrotation Zrotation
      JOINT Head
      {
       OFFSET 0.000000 8.901200 0.004600
       CHANNELS 3 Yrotation Xrotation Zrotation
       End Site
       {
        OFFSET 0.000000 16.962200 0.002400
       }
      }
     }
     JOINT RightCollar
     {
      OFFSET -2.920100 9.518800 0.000000
      CHANNELS 3 Yrotation Xrotation Zrotation
      JOINT RightShoulder
      {
       OFFSET -13.664500 0.000000 0.000000
       CHANNELS 3 Yrotation Xrotation Zrotation
       JOINT RightElbow
       {
        OFFSET 0.000000 -29.999200 0.000000
        CHANNELS 3 Yrotation Xrotation Zrotation
        JOINT RightWrist
        {
         OFFSET 0.000000 -24.253600 0.000000
         CHANNELS 3 Yrotation Xrotation Zrotation
         End Site
         {
          OFFSET 0.000000 -17.918900 0.000000
         }
        }
       }
      }
     }
     JOINT LeftCollar
     {
      OFFSET 2.920100 9.518800 0.000000
      CHANNELS 3 Yrotation Xrotation Zrotation
      JOINT LeftShoulder
      {
       OFFSET 13.664500 0.000000 0.000000
       CHANNELS 3 Yrotation Xrotation Zrotation
       JOINT LeftElbow
       {
        OFFSET 0.000000 -29.999200 0.000000
        CHANNELS 3 Yrotation Xrotation Zrotation
        JOINT LeftWrist
        {
         OFFSET 0.000000 -24.253600 0.000000
         CHANNELS 3 Yrotation Xrotation Zrotation
         End Site
         {
          OFFSET 0.000000 -17.918900 0.000000
         }
        }
       }
      }
     }
    }
   }
  }
 }
 JOINT RightHip
 {
  OFFSET -7.797300 0.005300 0.000500
  CHANNELS 3 Yrotation Xrotation Zrotation
  JOINT RightKnee
  {
   OFFSET 0.000000 -40.663400 -0.000500
   CHANNELS 3 Yrotation Xrotation Zrotation
   JOINT RightAnkle
   {
    OFFSET 0.000000 -39.523700 -0.000900
    CHANNELS 3 Yrotation Xrotation Zrotation
    JOINT RightToe
    {
     OFFSET 0.000000 -6.418000 14.485300
     CHANNELS 3 Yrotation Xrotation Zrotation
     End Site
     {
      OFFSET 0.000000 -1.465200 6.326400
     }
    }
   }
  }
 }
 JOINT LeftHip
 {
  OFFSET 7.797300 0.005300 0.000500
  CHANNELS 3 Yrotation Xrotation Zrotation
  JOINT LeftKnee
  {
   OFFSET 0.000000 -40.663400 -0.000500
   CHANNELS 3 Yrotation Xrotation Zrotation
   JOINT LeftAnkle
   {
    OFFSET 0.000000 -39.523700 -0.000900
    CHANNELS 3 Yrotation Xrotation Zrotation
    JOINT LeftToe
    {
     OFFSET 0.000000 -6.418000 14.485300
     CHANNELS 3 Yrotation Xrotation Zrotation
     End Site
     {
      OFFSET 0.000000 -1.465200 6.326400
     }
    }
   }
  }
 }
}
MOTION
Frames: 12
Frame Time: 0.008333
0.000000 86.422400 0.000000 0.000000 -5.767877 0.000000 0.000000 11.653817 0.000000 0.000000 -5.885947 0.000000 0.000000 -0.000000 0.000000 0.000000 -0.000000 0.000000 0.000000 12.528835 0.000000 0.000000 0.711642 0.000000 0.000000 -0.000000 0.000000 0.000000 0.000000 -90.000000 0.000000 -2.309062 0.000000 0.000000 2.309062 0.000000 0.000000 -0.000000 0.000000 0.000000 -0.000000 90.000000 0.000000 -2.309062 0.000000 0.000000 2.309062 0.000000 0.000000 8.520406 0.000000 0.000000 1.905762 0.000000 -0.000000 -4.658285 0.000000 0.000000 -0.000000 0.000000 0.000000 8.520406 0.000000 0.000000 1.905762 0.000000 -0.000000 -4.658285 0.000000 0.000000 -0.000000 0.000000
-13.250469 126.913083 30.757475 -160.024854 -49.931868 -2.728694 -4.091464 26.428219 -0.864815 -0.649326 4.448681 -0.026518 -1.029732 7.137758 -0.030925 -3.265735 21.627826 -0.548755 -2.012996 14.769712 -3.481455 -1.317875 -10.135614 -3.196009 0.773595 2.039245 0.071269 0.999314 -6.417704 -8.627619 -91.875395 -65.224309 141.942120 9.183437 12.920563 -2.231880 -10.556253 -2.195112 -0.163633 -5.923967 -10.147299 13.957733 64.281653 -63.581491 -104.911178 -4.055391 -9.649926 7.998526 -6.253756 -23.110645 -11.300950 -13.939480 78.996684 -15.582892 9.655660 -15.868083 3.652958 -0.003018 -0.001973 -0.001337 3.945184 5.043371 -2.316063 129.510719 64.903317 147.613769 10.654734 10.913794 3.762104 -0.001936 0.000858 -0.000858
-13.250359 126.913387 30.757092 -160.025822 -49.932943 -2.727488 -4.089888 26.369813 -0.896050 -0.647872 4.467604 -0.015517 -1.028458 7.149492 -0.023486 -3.282714 21.557028 -0.589971 -2.024320 14.848515 -3.462191 -1.339088 -10.074667 -3.179584 0.773673 2.049499 0.088941 1.068650 -6.437237 -8.599328 -92.184216 -65.386484 142.195120 9.356393 12.974783 -2.280494 -10.592183 -2.159764 -0.160231 -5.576717 -10.488226 14.104723 65.214956 -64.040617 -105.386057 -4.535895 -9.515917 7.584096 -6.245805 -23.108902 -11.298287 -13.961299 78.996329 -15.601003 9.654834 -15.872097 3.648552 -0.001413 -0.003213 -0.000626 3.947156 5.048363 -2.310231 129.510002 64.908431 147.616441 10.668410 10.931986 3.706564 -0.002743 0.006257 -0.001216
-13.251589 126.912900 30.757846 -160.011214 -49.927361 -2.728736 -4.105022 26.334312 -0.927123 -0.647090 4.456368 -0.019469 -1.025739 7.133479 -0.023692 -3.295533 21.514586 -0.626249 -2.042512 14.925759 -3.441796 -1.368116 -10.014887 -3.161033 0.774906 2.056479 0.113430 1.143018 -6.458380 -8.568507 -92.484651 -65.547328 142.444314 9.507089 13.019708 -2.326839 -10.627970 -2.130051 -0.152517 -5.162578 -10.860176 14.242076 66.151877 -64.466521 -105.880370 -4.919676 -9.419802 7.226592 -6.234532 -23.112676 -11.305818 -13.964887 79.000589 -15.596438 9.637425 -15.876059 3.652339 0.001197 -0.002948 0.000530 3.938346 5.048793 -2.317024 129.509609 64.909992 147.618902 10.660010 10.917615 3.718191 -0.000615 0.004909 -0.000272
-13.251345 126.912564 30.758068 -160.007280 -49.922831 -2.731856 -4.108082 26.297664 -0.950396 -0.645788 4.444684 -0.023422 -1.027800 7.073176 -0.052402 -3.285764 21.536636 -0.624833 -2.073624 14.982207 -3.428015 -1.404134 -9.955606 -3.139581 0.782066 2.093823 0.145797 1.210626 -6.526498 -8.551146 -92.754275 -65.691499 142.677462 9.630953 13.056881 -2.369170 -10.667733 -2.125514 -0.146208 -4.679923 -11.266917 14.366348 67.047516 -64.829364 -106.365202 -5.184550 -9.354563 6.960913 -6.230867 -23.115089 -11.302748 -13.994968 78.995454 -15.622964 9.637667 -15.874201 3.654038 0.001066 -0.002259 0.000472 3.937261 5.049476 -2.314633 129.503214 64.910547 147.618056 10.641455 10.895921 3.752481 0.003012 -0.002454 0.001334
-13.250969 126.912750 30.757839 -160.007057 -49.922258 -2.734737 -4.105847 26.261382 -0.970614 -0.644537 4.457633 -0.013997 -1.028686 7.013790 -0.079922 -3.284437 21.529050 -0.636342 -2.109360 15.038906 -3.413971 -1.445037 -9.896015 -3.116959 0.774777 2.062486 0.161844 1.294719 -6.520512 -8.516332 -92.968808 -65.809344 142.870942 9.728206 13.087747 -2.407224 -10.704623 -2.125326 -0.139524 -4.132669 -11.708957 14.474065 67.867999 -65.107693 -106.818431 -5.330973 -9.312161 6.816139 -6.226799 -23.112039 -11.297857 -13.968667 78.990034 -15.599753 9.648897 -15.871983 3.656257 0.001969 -0.001282 0.000872 3.937554 5.051219 -2.308891 129.498631 64.908784 147.615345 10.643493 10.900369 3.729765 0.003348 -0.000575 0.001484
-13.251365 126.913190 30.757626 -160.000405 -49.923570 -2.739227 -4.110073 26.224657 -0.993258 -0.641965 4.471422 -0.006160 -1.031093 6.966933 -0.097257 -3.289528 21.503796 -0.656298 -2.147102 15.096129 -3.401373 -1.487838 -9.835697 -3.095429 0.773482 2.034670 0.179376 1.379598 -6.513563 -8.484215 -93.106816 -65.896901 143.002228 9.806020 13.110205 -2.437081 -10.735772 -2.131433 -0.133232 -3.531119 -12.179131 14.560871 68.621933 -65.296613 -107.242688 -5.372683 -9.291922 6.802308 -6.225386 -23.105991 -11.292785 -13.926689 78.987446 -15.559448 9.618826 -15.873793 3.657502 -0.001919 -0.000818 -0.000850 3.932703 5.053352 -2.307086 129.504607 64.908051 147.619299 10.651874 10.907982 3.704318 0.003009 0.002782 0.001333
-13.252638 126.913955 30.757399 -159.994111 -49.927194 -2.739813 -4.118619 26.188783 -1.019426 -0.642909 4.418357 -0.029293 -1.028142 6.985433 -0.084824 -3.298424 21.476639 -0.676905 -2.147795 15.178273 -3.380241 -1.567519 -9.794245 -3.078976 0.792772 2.086211 0.207679 1.451092 -6.581040 -8.467861 -93.167463 -65.953630 143.068395 9.866153 13.124920 -2.448766 -10.756516 -2.142404 -0.127202 -2.889017 -12.671491 14.619139 69.332753 -65.408188 -107.638564 -5.339929 -9.297362 6.909978 -6.223167 -23.098557 -11.296350 -13.910363 78.985701 -15.540645 9.606742 -15.875085 3.657979 -0.002263 -0.000085 -0.001003 3.928258 5.056602 -2.309637 129.493106 64.905975 147.602360 10.661450 10.925364 3.670447 -0.001348 0.007018 -0.000597
-13.253994 126.913888 30.757904 -159.983792 -49.923659 -2.742983 -4.133217 26.144495 -1.046205 -0.644371 4.390468 -0.038966 -1.027552 6.977075 -0.085304 -3.310041 21.448030 -0.697590 -2.203537 15.229325 -3.381467 -1.591391 -9.717561 -3.064878 0.807742 2.061342 0.225882 1.526487 -6.567222 -8.442388 -93.061885 -65.985244 142.935128 9.946334 13.094683 -2.390467 -10.767112 -2.153549 -0.120807 -2.219355 -13.185395 14.643525 70.017205 -65.462185 -108.003400 -5.263017 -9.331120 7.119460 -6.219959 -23.096758 -11.298325 -13.922431 78.982708 -15.548347 9.590808 -15.878352 3.660498 -0.003184 0.001341 -0.001411 3.923439 5.055116 -2.313154 129.491750 64.906103 147.596921 10.645281 10.901816 3.727534 -0.000792 0.001040 -0.000351
-13.255554 126.913836 30.758383 -159.967895 -49.919491 -2.750962 -4.149072 26.119790 -1.061810 -0.648994 4.354444 -0.052662 -1.027952 6.954296 -0.090681 -3.319624 21.418259 -0.716013 -2.262899 15.284876 -3.387319 -1.613988 -9.635752 -3.055563 0.819485 2.037796 0.247004 1.586094 -6.520674 -8.422836 -93.001628 -66.004934 142.868891 9.983051 13.050524 -2.315571 -10.776815 -2.162295 -0.111661 -1.537387 -13.719961 14.635193 70.695389 -65.478716 -108.343309 -5.151265 -9.395464 7.411946 -6.218037 -23.093026 -11.302359 -13.916200 78.977987 -15.541828 9.606307 -15.889680 3.661450 -0.000008 0.001124 -0.000003 3.914024 5.045581 -2.319625 129.503698 64.900124 147.605726 10.642227 10.896158 3.748985 -0.000176 -0.000313 -0.000078
-13.255466 126.913938 30.758146 -159.965091 -49.915533 -2.761485 -4.156310 26.064364 -1.081391 -0.646299 4.349054 -0.050439 -1.027828 6.930717 -0.094992 -3.327293 21.387648 -0.730935 -2.303894 15.356094 -3.393093 -1.656361 -9.559826 -3.053066 0.837938 2.097553 0.271804 1.645066 -6.583979 -8.404652 -93.041411 -65.984741 143.032897 9.928906 13.103358 -2.373026 -10.790124 -2.170799 -0.101377 -0.853073 -14.270892 14.597390 71.388804 -65.475390 -108.663843 -5.005997 -9.495246 7.750596 -6.218026 -23.090862 -11.289137 -13.918365 78.975049 -15.544075 9.597875 -15.896222 3.665134 -0.001328 0.000292 -0.000589 3.913181 5.036869 -2.311850 129.512383 64.898257 147.614065 10.668862 10.928831 3.680705 -0.003259 0.012147 -0.001444
-13.256722 126.914325 30.757903 -159.962336 -49.913150 -2.766200 -4.166350 26.008661 -1.105250 -0.644328 4.343603 -0.047395 -1.028475 6.907114 -0.098503 -3.337076 21.356694 -0.743558 -2.308566 15.450396 -3.392798 -1.730819 -9.500719 -3.062764 0.858895 2.159522 0.289383 1.707452 -6.675642 -8.379096 -92.911793 -65.963777 142.966947 9.910712 13.122258 -2.375258 -10.803278 -2.182764 -0.094129 -0.170301 -14.832152 14.531638 72.110557 -65.465633 -108.970843 -4.839523 -9.642483 8.083147 -6.219476 -23.090531 -11.284640 -13.919526 78.975095 -15.546844 9.594198 -15.900009 3.667481 -0.001723 -0.000677 -0.000763 3.911617 5.031067 -2.310298 129.518999 64.895868 147.618997 10.664596 10.925769 3.698317 -0.002513 0.013151 -0.001114
